# AST/ASF file generated using VICON BodyLanguage
# -----------------------------------------------
:version 1.10
:name VICON
:units
  mass 1.0
  length 0.45
  angle deg
:documentation
   .ast/.asf automatically generated from VICON data using
   VICON BodyBuilder and BodyLanguage model FoxedUp or BRILLIANT.MOD
:root
   order TX TY TZ RX RY RZ
   axis XYZ
   position 0 0 0  
   orientation 0 0 0 
:bonedata
  begin
     id 1 
     name lhipjoint
     direction 0.567725 -0.736092 0.368589 
     length 2.42353 
     axis 0 0 0  XYZ
  end
  begin
     id 2 
     name lfemur
     direction 0.34202 -0.939693 0  
     length 7.24894  
     axis 0 0 20  XYZ
    dof rx ry rz
    limits (-160.0 20.0)
           (-70.0 70.0)
           (-60.0 70.0)
  end
  begin
     id 3 
     name ltibia
     direction 0.34202 -0.939693 0   
     length 7.6997   
     axis 0 0 20   XYZ
    dof rx
    limits (-10.0 170.0)
  end
  begin
     id 4 
     name lfoot
     direction 0.100767 -0.276854 0.955614   
     length 2.37556   
     axis -90 7.62852e-016 20   XYZ
    dof rx rz
    limits (-45.0 90.0)
           (-70.0 20.0)
  end
  begin
     id 5 
     name ltoes
     direction 1.53592e-011 -4.21894e-011 1   
     length 1.18363   
     axis -90 7.62852e-016 20   XYZ
    dof rx
    limits (-90.0 20.0)
  end
  begin
     id 6 
     name rhipjoint
     direction -0.556459 -0.742938 0.372017   
     length 2.4012  
     axis 0 0 0  XYZ 
  end
  begin
     id 7 
     name rfemur
     direction -0.34202 -0.939693 0   
     length 7.5119   
     axis 0 0 -20   XYZ
    dof rx ry rz
    limits (-160.0 20.0)
           (-70.0 70.0)
           (-70.0 60.0)
  end
  begin
     id 8 
     name rtibia
     direction -0.34202 -0.939693 0   
     length 7.50155   
     axis 0 0 -20   XYZ
    dof rx
    limits (-10.0 170.0)
 end
 begin
     id 9 
     name rfoot
     direction -0.118427 -0.325376 0.938139   
     length 2.32487  
     axis -90 -7.62852e-016 -20   XYZ
    dof rx rz
    limits (-45.0 90.0)
           (-20.0 70.0)
  end
  begin
     id 10 
     name rtoes
     direction -1.53525e-011 -4.21868e-011 1   
     length 1.15233   
     axis -90 -7.62852e-016 -20   XYZ
    dof rx
    limits (-90.0 20.0)
  end
  begin
     id 11 
     name lowerback
     direction 0.0287568 0.999577 -0.00434502   
     length 2.15243   
     axis 0 0 0   XYZ
    dof rx ry rz
    limits (-20.0 45.0)
           (-30.0 30.0)
           (-30.0 30.0)
  end
  begin
     id 12 
     name upperback
     direction 0.0294009 0.99956 0.00404628   
     length 2.15427   
     axis 0 0 0   XYZ
    dof rx ry rz
    limits (-20.0 45.0)
           (-30.0 30.0)
           (-30.0 30.0)
  end
  begin
     id 13 
     name thorax
     direction 0.0151014 0.999868 0.0059419   
     length 2.14898   
     axis 0 0 0   XYZ
    dof rx ry rz
    limits (-20.0 45.0)
           (-30.0 30.0)
           (-30.0 30.0)
  end
  begin
     id 14 
     name lowerneck
     direction -0.0249197 0.989906 0.139515   
     length 1.6861   
     axis 0 0 0   XYZ
    dof rx ry rz
    limits (-20.0 45.0)
           (-30.0 30.0)
           (-30.0 30.0)
  end
  begin
     id 15 
     name upperneck
     direction 0.0438463 0.988795 -0.142693   
     length 1.71276   
     axis 0 0 0   XYZ
    dof rx ry rz
    limits (-20.0 45.0)
           (-30.0 30.0)
           (-30.0 30.0)
  end
  begin
     id 16
     name head
     direction 0.0148499 0.997845 -0.0639186  
     length 1.7209  
     axis 0 0 0   XYZ
    dof rx ry rz
    limits (-20.0 45.0)
           (-30.0 30.0)
           (-30.0 30.0)
  end
  begin
     id 17 
     name lclavicle
     direction 0.940298 0.323464 -0.105876  
     length 3.9048  
     axis 0 0 0   XYZ
    dof ry rz
    limits (-20.0 10.0)
           (0.0 20.0)
  end
  begin
     id 18 
     name lhumerus
     direction 1 -4.48954e-011 -4.9675e-028   
     length 4.6851   
     axis 180 -30 -90   XYZ
    dof rx ry rz
    limits (-60.0 90.0)
           (-90.0 90.0)
           (-90.0 90.0)
  end
  begin
     id 19
     name lradius
     direction 1 -4.48992e-011 -1.03359e-026   
     length 3.39626   
     axis 180 -30 -90   XYZ
    dof rx
    limits (-10.0 170.0)
  end
  begin
     id 20
     name lwrist
     direction 1 -4.48906e-011 -1.67336e-026   
     length 1.69813   
     axis 9.90442e-015 90 90   XYZ
    dof ry
    limits (-180.0 0.0)
 end
  begin
     id 21 
     name lhand
     direction 1 -4.49006e-011 -3.34673e-026   
     length 0.486078   
     axis 2.1355e-014 90 90   XYZ
    dof rx rz
    limits (-90.0 90.0)
           (-45.0 45.0)
  end
  begin
     id 22 
     name lfingers
     direction 1 -4.48992e-011 -6.69345e-026   
     length 0.391889   
     axis 4.27099e-014 90 90   XYZ
    dof rx
    limits (0.0 90.0)
  end
  begin
     id 23
     name lthumb
     direction 0.707107 -6.34926e-011 0.707107   
     length 0.562676   
     axis -90 45 2.85299e-015   XYZ
    dof rx rz
    limits (-45.0 45.0)
           (-45.0 45.0)
  end
  begin
     id 24 
     name rclavicle
     direction -0.882459 0.414895 -0.221648   
     length 3.44646  
     axis 0 0 0   XYZ 
    dof ry rz
    limits (-10.0 20.0)
           (-20.0 0.0)
  end
  begin
     id 25 
     name rhumerus
     direction -1 -4.48962e-011 -2.37984e-027  
     length 5.55576   
     axis 180 30 90   XYZ
    dof rx ry rz
    limits (-90.0 60.0)
           (-90.0 90.0)
           (-90.0 90.0)
  end
  begin
     id 26 
     name rradius
     direction -1 -4.48982e-011 -6.86791e-027   
     length 3.32774   
     axis 180 30 90   XYZ
    dof rx
    limits (-10.0 170.0)
  end
  begin
     id 27 
     name rwrist
     direction -1 -4.48961e-011 -1.67336e-026   
     length 1.66387   
     axis 9.90442e-015 -90 -90   XYZ
    dof ry
    limits (-180.0 0.0)
  end
  begin
     id 28
     name rhand
     direction -1 -4.4897e-011 -3.34673e-026   
     length 0.507628   
     axis 2.1355e-014 -90 -90   XYZ
    dof rx rz
    limits (-90.0 90.0)
           (-45.0 45.0)
  end
  begin
     id 29
     name rfingers
     direction -1 -4.48854e-011 -6.69345e-026   
     length 0.409263   
     axis 4.27099e-014 -90 -90   XYZ
    dof rx
    limits (0.0 90.0)
  end
  begin
     id 30
     name rthumb
     direction -0.707107 -6.34913e-011 0.707107   
     length 0.587622   
     axis -90 -45 -2.85299e-015   XYZ
    dof rx rz
    limits (-45.0 45.0)
           (-45.0 45.0)
  end
:hierarchy
  begin
    root lhipjoint rhipjoint lowerback
    lhipjoint lfemur
    lfemur ltibia
    ltibia lfoot
    lfoot ltoes
    rhipjoint rfemur
    rfemur rtibia
    rtibia rfoot
    rfoot rtoes
    lowerback upperback
    upperback thorax
    thorax lowerneck lclavicle rclavicle
    lowerneck upperneck
    upperneck head
    lclavicle lhumerus
    lhumerus lradius
    lradius lwrist
    lwrist lhand lthumb
    lhand lfingers
    rclavicle rhumerus
    rhumerus rradius
    rradius rwrist
    rwrist rhand rthumb
    rhand rfingers
  end

#!OML:ASF E:\motion texture\Top Level 1\Subject 1\Session 1\male.ASF
:FULLY-SPECIFIED
:DEGREES
82
root 21.6287 17.9342 5.21653 102.546 -80.1446 -97.8171
lowerback -1.57766 2.37732 9.03663
upperback -1.586 2.96415 3.68118
thorax -0.493319 1.36376 -1.202
lowerneck -12.7884 -2.73361 -7.69165
upperneck 5.32833 -3.61738 12.8811
head 4.0757 -1.31234 4.9943
rclavicle 9.30871e-015 -3.77691e-014
rhumerus -17.768 7.7499 -82.4359
rradius 80.3713
rwrist -5.78624
rhand -7.34954 -23.5658
rfingers 7.12502
rthumb 18.5346 -52.7028
lclavicle 9.30871e-015 -3.77691e-014
lhumerus -37.1513 19.6101 74.3837
lradius 26.8993
lwrist -29.7708
lhand -16.043 20.4419
lfingers 7.12502
lthumb 10.1587 50.1766
rfemur -1.68899 5.29286 35.25
rtibia 12.8693
rfoot -10.2777 -13.3456
rtoes 12.3307
lfemur -30.6635 5.96359 -4.83122
ltibia 49.6448
lfoot -10.4063 6.36682
ltoes -16.9056
83
root 21.5033 17.9292 5.2181 103.864 -80.0703 -98.966
lowerback -1.60178 2.52192 9.18388
upperback -1.58027 3.15359 3.56003
thorax -0.443358 1.45939 -1.40145
lowerneck -13.119 -2.78161 -7.77216
upperneck 5.36179 -3.65831 12.9204
head 4.14718 -1.3207 5.01667
rclavicle -1.28775e-014 -2.18663e-014
rhumerus -16.6831 6.97516 -81.8396
rradius 80.1819
rwrist -6.53473
rhand -7.01475 -23.752
rfingers 7.12502
rthumb 18.8566 -52.858
lclavicle -1.28775e-014 -2.18663e-014
lhumerus -38.116 21.903 72.2585
lradius 26.5725
lwrist -30.6814
lhand -15.8712 21.278
lfingers 7.12502
lthumb 10.3244 51.0045
rfemur -1.34437 5.45112 35.3209
rtibia 12.7757
rfoot -10.5326 -13.3192
rtoes 11.9329
lfemur -31.1365 5.9361 -4.74932
ltibia 47.5399
lfoot -10.5452 6.70272
ltoes -17.0685
84
root 21.3783 17.9222 5.22008 105.04 -80.0074 -99.9711
lowerback -1.6235 2.64467 9.30466
upperback -1.5692 3.31429 3.44354
thorax -0.391886 1.54132 -1.58189
lowerneck -13.4289 -2.82318 -7.83212
upperneck 5.34751 -3.68692 12.9264
head 4.19827 -1.3259 5.02564
rclavicle -1.85491e-014 -1.88845e-014
rhumerus -15.5574 6.17175 -81.263
rradius 79.8769
rwrist -7.29268
rhand -6.70346 -23.9626
rfingers 7.12502
rthumb 19.156 -53.0392
lclavicle -1.85491e-014 -1.88845e-014
lhumerus -39.2314 23.9807 70.1589
lradius 26.4951
lwrist -31.3399
lhand -15.6221 22.1803
lfingers 7.12502
lthumb 10.5647 51.8948
rfemur -1.01772 5.59196 35.3737
rtibia 12.7075
rfoot -10.7871 -13.2997
rtoes 11.4979
lfemur -31.535 5.82593 -4.65763
ltibia 45.2781
lfoot -10.5645 7.01416
ltoes -17.1664
85
root 21.2536 17.9129 5.22257 106.11 -79.9533 -100.87
lowerback -1.65078 2.74616 9.40186
upperback -1.54882 3.44553 3.3347
thorax -0.330981 1.60955 -1.74151
lowerneck -13.7247 -2.85786 -7.87381
upperneck 5.29464 -3.7028 12.8985
head 4.23267 -1.32746 5.02148
rclavicle -2.02885e-014 -2.60408e-014
rhumerus -14.3832 5.35004 -80.7101
rradius 79.4548
rwrist -8.03322
rhand -6.44879 -24.2124
rfingers 7.12502
rthumb 19.4009 -53.2645
lclavicle -2.02885e-014 -2.60408e-014
lhumerus -40.4675 25.7922 68.1379
lradius 26.6553
lwrist -31.6636
lhand -15.361 23.1639
lfingers 7.12502
lthumb 10.8165 52.8653
rfemur -0.709429 5.71212 35.4095
rtibia 12.6644
rfoot -11.0454 -13.2842
rtoes 11.0143
lfemur -31.8567 5.63203 -4.54895
ltibia 42.8594
lfoot -10.4406 7.30692
ltoes -17.2189
86
root 21.1287 17.9017 5.22523 107.135 -79.9065 -101.73
lowerback -1.66742 2.82765 9.46998
upperback -1.52049 3.55132 3.23608
thorax -0.271719 1.66565 -1.87548
lowerneck -14.0158 -2.88262 -7.90526
upperneck 5.22028 -3.70261 12.8456
head 4.25706 -1.32286 5.00882
rclavicle 2.34193e-015 2.08724e-014
rhumerus -13.1695 4.51424 -80.1887
rradius 78.9194
rwrist -8.72563
rhand -6.25797 -24.4955
rfingers 7.12502
rthumb 19.5844 -53.5291
lclavicle 2.34193e-015 2.08724e-014
lhumerus -41.8013 27.3167 66.2287
lradius 27.0213
lwrist -31.5679
lhand -15.1678 24.0963
lfingers 7.12502
lthumb 11.0029 53.7879
rfemur -0.402835 5.82095 35.433
rtibia 12.6434
rfoot -11.3069 -13.2746
rtoes 10.4813
lfemur -32.0806 5.3537 -4.41527
ltibia 40.2832
lfoot -10.1615 7.57572
ltoes -17.2272
87
root 21.0045 17.8884 5.22771 107.997 -79.867 -102.431
lowerback -1.67511 2.88499 9.51258
upperback -1.48453 3.62586 3.14948
thorax -0.214437 1.70663 -1.98417
lowerneck -14.3171 -2.90088 -7.92549
upperneck 5.13746 -3.69174 12.7684
head 4.27836 -1.314 4.98732
rclavicle 1.79403e-014 -3.75703e-014
rhumerus -11.919 3.6614 -79.701
rradius 78.2743
rwrist -9.34899
rhand -6.15613 -24.7906
rfingers 7.12502
rthumb 19.6823 -53.8142
lclavicle 1.79403e-014 -3.75703e-014
lhumerus -43.1775 28.5565 64.4703
lradius 27.5508
lwrist -30.9853
lhand -15.1005 25.0796
lfingers 7.12502
lthumb 11.0679 54.7678
rfemur -0.106523 5.91832 35.4551
rtibia 12.6404
rfoot -11.5714 -13.29
rtoes 9.92862
lfemur -32.23 4.97097 -4.24621
ltibia 37.5785
lfoot -9.71949 7.80814
ltoes -17.1939
88
root 20.8803 17.8731 5.23005 108.696 -79.8335 -102.968
lowerback -1.67084 2.92361 9.53095
upperback -1.45174 3.67746 3.07646
thorax -0.171557 1.73571 -2.06702
lowerneck -14.6125 -2.9094 -7.94282
upperneck 5.0524 -3.66725 12.6807
head 4.29604 -1.2993 4.96321
rclavicle -1.98288e-014 -1.92821e-014
rhumerus -10.6644 2.78053 -79.2473
rradius 77.5309
rwrist -9.89796
rhand -6.13741 -25.1003
rfingers 7.12502
rthumb 19.7003 -54.1221
lclavicle -1.98288e-014 -1.92821e-014
lhumerus -44.5615 29.4218 62.9517
lradius 28.2619
lwrist -29.7534
lhand -15.1341 26.1161
lfingers 7.12502
lthumb 11.0354 55.806
rfemur 0.190835 6.01178 35.481
rtibia 12.6347
rfoot -11.8353 -13.335
rtoes 9.36858
lfemur -32.3059 4.48558 -4.0371
ltibia 34.7403
lfoot -9.09054 8.02238
ltoes -17.1893
89
root 20.7554 17.856 5.23271 109.386 -79.7924 -103.499
lowerback -1.66918 2.95335 9.53606
upperback -1.41332 3.71631 3.01803
thorax -0.124286 1.75878 -2.12766
lowerneck -14.8973 -2.91312 -7.97811
upperneck 4.95391 -3.63368 12.6057
head 4.3074 -1.28064 4.94697
rclavicle -2.52208e-014 -8.74653e-015
rhumerus -9.40172 1.87744 -78.8317
rradius 76.6958
rwrist -10.3951
rhand -6.20534 -25.4055
rfingers 7.12502
rthumb 19.635 -54.434
lclavicle -2.52208e-014 -8.74653e-015
lhumerus -45.9156 30.0521 61.624
lradius 29.0722
lwrist -27.9508
lhand -15.2581 27.1069
lfingers 7.12502
lthumb 10.9158 56.8032
rfemur 0.481874 6.09199 35.5101
rtibia 12.6529
rfoot -12.1078 -13.3702
rtoes 8.80041
lfemur -32.2902 3.90679 -3.77177
ltibia 31.7839
lfoot -8.32369 8.23712
ltoes -17.1409
90
root 20.6297 17.8372 5.23592 110.038 -79.741 -103.987
lowerback -1.67573 2.97599 9.53891
upperback -1.38037 3.7447 2.97052
thorax -0.0799763 1.77625 -2.17582
lowerneck -15.1487 -2.91407 -8.00115
upperneck 4.84436 -3.59833 12.5176
head 4.30906 -1.26294 4.92467
rclavicle 2.32143e-014 2.10712e-014
rhumerus -8.16104 0.950343 -78.4596
rradius 75.7894
rwrist -10.8713
rhand -6.34206 -25.7371
rfingers 7.12502
rthumb 19.5035 -54.7789
lclavicle 2.32143e-014 2.10712e-014
lhumerus -47.2151 30.4362 60.5115
lradius 29.9685
lwrist -25.5663
lhand -15.4289 28.0164
lfingers 7.12502
lthumb 10.751 57.7213
rfemur 0.759164 6.15819 35.5441
rtibia 12.6914
rfoot -12.3859 -13.3919
rtoes 8.22002
lfemur -32.2034 3.23819 -3.44512
ltibia 28.7415
lfoot -7.47741 8.49131
ltoes -17.1588
91
root 20.5022 17.817 5.24015 110.752 -79.673 -104.529
lowerback -1.70202 3.00178 9.54238
upperback -1.35423 3.77473 2.9341
thorax -0.0321439 1.79425 -2.21193
lowerneck -15.3501 -2.91625 -8.01739
upperneck 4.7151 -3.56679 12.4248
head 4.29663 -1.24929 4.89932
rclavicle -1.49523e-014 -2.08724e-014
rhumerus -6.96025 0.00335031 -78.1275
rradius 74.8352
rwrist -11.3859
rhand -6.53785 -26.119
rfingers 7.12502
rthumb 19.3152 -55.1798
lclavicle -1.49523e-014 -2.08724e-014
lhumerus -48.45 30.6335 59.587
lradius 30.9211
lwrist -22.7428
lhand -15.5958 28.8063
lfingers 7.12502
lthumb 10.5901 58.5194
rfemur 1.02131 6.20985 35.5765
rtibia 12.757
rfoot -12.6791 -13.3736
rtoes 7.64439
lfemur -32.0506 2.48913 -3.05255
ltibia 25.6553
lfoot -6.65257 8.82006
ltoes -17.2296
92
root 20.3719 17.7958 5.24586 111.662 -79.5786 -105.271
lowerback -1.74646 3.04306 9.552
upperback -1.33282 3.82281 2.90496
thorax 0.0228679 1.82117 -2.2423
lowerneck -15.4992 -2.92355 -8.01356
upperneck 4.57155 -3.54692 12.3199
head 4.2719 -1.24358 4.86569
rclavicle -1.2921e-015 4.56211e-014
rhumerus -5.81809 -0.960114 -77.8339
rradius 73.8622
rwrist -11.9959
rhand -6.77917 -26.5762
rfingers 7.12502
rthumb 19.0832 -55.66
lclavicle -1.2921e-015 4.56211e-014
lhumerus -49.6049 30.6724 58.8421
lradius 31.9152
lwrist -19.6384
lhand -15.8565 29.8412
lfingers 7.12502
lthumb 10.3386 59.5671
rfemur 1.27883 6.25372 35.6024
rtibia 12.8563
rfoot -12.9877 -13.2909
rtoes 7.05645
lfemur -31.8203 1.68049 -2.59007
ltibia 22.5699
lfoot -5.96791 9.24611
ltoes -17.3554
93
root 20.2393 17.7738 5.25305 112.666 -79.4678 -106.102
lowerback -1.8196 3.09667 9.56471
upperback -1.31534 3.8835 2.88084
thorax 0.0912133 1.85461 -2.26709
lowerneck -15.5895 -2.93974 -7.99261
upperneck 4.41219 -3.54406 12.2075
head 4.23409 -1.24844 4.82531
rclavicle 9.36773e-015 -3.74709e-014
rhumerus -4.74099 -1.93858 -77.5732
rradius 72.8942
rwrist -12.7482
rhand -7.06251 -27.1347
rfingers 7.12502
rthumb 18.8107 -56.2451
lclavicle 9.36773e-015 -3.74709e-014
lhumerus -50.6652 30.5713 58.2793
lradius 32.9521
lwrist -16.4591
lhand -16.1314 30.9964
lfingers 7.12502
lthumb 10.0734 60.7353
rfemur 1.52643 6.28179 35.6143
rtibia 12.9807
rfoot -13.3092 -13.1523
rtoes 6.46043
lfemur -31.5579 0.827975 -2.07887
ltibia 19.5711
lfoot -5.51585 9.74927
ltoes -17.544
94
root 20.1037 17.7512 5.26186 113.818 -79.341 -107.081
lowerback -1.91102 3.16703 9.57959
upperback -1.30703 3.96449 2.85793
thorax 0.162625 1.89789 -2.29006
lowerneck -15.6209 -2.96171 -7.96735
upperneck 4.24119 -3.55376 12.1064
head 4.18481 -1.26078 4.78678
rclavicle -4.01421e-014 -2.79292e-014
rhumerus -3.74959 -2.9274 -77.3437
rradius 71.9565
rwrist -13.6668
rhand -7.37657 -27.7923
rfingers 7.12502
rthumb 18.5086 -56.9317
lclavicle -4.01421e-014 -2.79292e-014
lhumerus -51.6373 30.3151 57.9081
lradius 34.0524
lwrist -13.3809
lhand -16.3006 32.0733
lfingers 7.12502
lthumb 9.91011 61.82
rfemur 1.77006 6.2982 35.6049
rtibia 13.1321
rfoot -13.6425 -12.9518
rtoes 5.83335
lfemur -31.2788 -0.0331737 -1.5385
ltibia 16.7355
lfoot -5.35361 10.3141
ltoes -17.7502
95
root 19.966 17.7283 5.27201 115.023 -79.2038 -108.118
lowerback -2.01649 3.24895 9.59336
upperback -1.30163 4.05912 2.83637
thorax 0.240317 1.94809 -2.30942
lowerneck -15.5969 -2.99198 -7.9451
upperneck 4.05465 -3.5781 12.0236
head 4.12396 -1.28137 4.75337
rclavicle -1.86485e-014 -8.54774e-015
rhumerus -2.84302 -3.92526 -77.1386
rradius 71.0645
rwrist -14.7225
rhand -7.69739 -28.5053
rfingers 7.12502
rthumb 18.2 -57.6738
lclavicle -1.86485e-014 -8.54774e-015
lhumerus -52.5218 29.9902 57.6716
lradius 35.1768
lwrist -10.6341
lhand -16.3103 32.9494
lfingers 7.12502
lthumb 9.90075 62.6966
rfemur 2.00983 6.30267 35.5787
rtibia 13.3122
rfoot -13.9795 -12.7088
rtoes 5.164
lfemur -31.0196 -0.845423 -1.00256
ltibia 14.1771
lfoot -5.4833 10.867
ltoes -17.9133
96
root 19.827 17.7051 5.2832 116.155 -79.0724 -109.078
lowerback -2.12737 3.33602 9.60001
upperback -1.30783 4.16092 2.81348
thorax 0.309457 2.00119 -2.32567
lowerneck -15.5159 -3.02658 -7.92822
upperneck 3.85839 -3.6123 11.9655
head 4.05286 -1.30743 4.72813
rclavicle -4.98204e-014 -3.52843e-014
rhumerus -2.04121 -4.93909 -76.9521
rradius 70.2323
rwrist -15.8475
rhand -8.02244 -29.2401
rfingers 7.12502
rthumb 17.8872 -58.4375
lclavicle -4.98204e-014 -3.52843e-014
lhumerus -53.3146 29.5424 57.614
lradius 36.36
lwrist -8.25804
lhand -16.1008 33.5822
lfingers 7.12502
lthumb 10.1029 63.3197
rfemur 2.24608 6.30288 35.5378
rtibia 13.5044
rfoot -14.3092 -12.4589
rtoes 4.44408
lfemur -30.837 -1.53559 -0.524775
ltibia 12.0102
lfoot -5.82857 11.3203
ltoes -18.065
